<svg width="128" height="120" viewBox="0 0 128 120" fill="none" xmlns="http://www.w3.org/2000/svg">
<path d="M72.6234 106.656C74.1231 111.694 77.356 113.077 81.9719 113.194C88.7986 113.36 95.6032 114.144 102.413 114.699C103.277 114.825 104.131 115.01 104.968 115.255L105.018 116.232C102.674 116.643 100.341 117.249 97.9806 117.432C74.5231 119.198 51.0489 119.765 27.5525 118.16C22.3033 117.799 17.0541 117.365 11.8105 116.899C10.6929 116.719 9.59015 116.457 8.51097 116.116V115.149C11.6049 114.66 14.6878 113.955 17.804 113.727C23.242 113.338 28.7023 113.216 34.1515 113.038C37.1066 112.944 40.1672 110.577 40.4672 107.683C40.5283 107.128 39.2563 106.056 38.4342 105.834C31.7995 104.133 25.5322 101.232 19.9425 97.2739C5.52254 86.8033 -0.732057 72.4055 0.06782 54.7971C0.112258 53.8862 1.13988 52.4364 1.94531 52.2198C3.88946 51.7809 6.11134 51.4921 7.42225 53.6695C8.22768 55.0082 8.75538 56.508 9.44416 57.9189C15.3544 70.0781 26.6249 74.6608 39.1674 74.0275C47.4994 73.5998 54.6428 70.2503 61.1418 65.14C74.0565 55.0138 88.9708 52.5364 104.863 54.0306C106.428 54.1183 107.984 54.3244 109.518 54.6472C112.795 55.4804 113.9 56.919 113.623 60.2019C112.262 76.4438 105.602 89.7473 91.4038 98.4182C86.8045 101.229 81.5775 103.018 76.6116 105.223C75.3618 105.806 74.0287 106.167 72.6234 106.656Z" fill="#FAF1E4"/>
<path d="M117.367 52.1587C112.195 51.4921 106.813 50.6978 101.397 50.1257C85.2215 48.4148 69.9961 50.8033 56.9203 61.2906C49.0882 67.5785 40.4339 70.4448 30.5521 68.0562C23.0644 66.2454 17.2208 62.1405 14.8545 54.3195C13.7991 50.8367 14.4324 50.2145 18.0318 50.4645C26.7916 51.0644 35.5514 51.7532 44.3222 52.0809C52.7932 52.3975 60.642 49.3813 68.5852 46.915C81.8165 42.8045 95.3366 40.4993 109.257 40.9104C114.689 41.0715 119.911 42.0213 124.81 44.4987C126.476 45.3375 128.609 46.3762 127.837 48.487C127.371 49.759 125.443 50.8478 123.949 51.3199C121.949 51.9476 119.75 51.892 117.367 52.1587Z" fill="#FAF1E4"/>
<path d="M37.9231 30.0009C39.2562 27.5291 40.5394 25.035 41.9336 22.5965C45.3942 16.5197 48.3604 10.3151 47.3217 3.00509C47.1828 2.01636 47.0717 1.02207 46.9384 0C49.8379 3.33282 50.8267 9.68185 48.6048 14.47C46.2052 19.6414 43.2612 24.5573 40.4727 29.5399C40.1561 30.0954 39.3618 30.3842 38.7452 30.7897L37.9231 30.0009Z" fill="#FAF1E4"/>
<path d="M55.4148 16.2197C57.82 19.8969 56.7424 23.3297 54.9871 26.7181C53.5985 29.401 51.7543 31.9618 50.9877 34.8113C50.4323 36.9221 51.271 39.4051 51.4488 41.2603C48.9436 39.1662 48.327 37.2221 49.7879 33.7504C50.7157 31.651 51.7712 29.6104 52.9486 27.6402C55.0415 24.223 55.9111 20.1961 55.4148 16.2197Z" fill="#FAF1E4"/>
<path d="M34.2348 15.7142C34.9832 17.0526 35.3813 18.5584 35.392 20.0918C35.4026 21.6252 35.0256 23.1364 34.2959 24.4851C33.1238 26.7848 31.8462 29.0289 30.6075 31.2952C28.9411 34.328 28.6745 37.4053 30.7964 40.8604C27.8469 38.3052 27.2747 36.2555 28.5245 33.006C29.2065 31.2922 30.0237 29.6354 30.9686 28.0512C33.196 24.2296 34.7514 20.2635 34.2348 15.7142Z" fill="#FAF1E4"/>
</svg>
