<svg width="19" height="18" viewBox="0 0 19 18" fill="none" xmlns="http://www.w3.org/2000/svg">
<path d="M1.94167 18C1.74167 18 1.54583 17.9583 1.35417 17.875C1.1625 17.7917 1 17.6833 0.866667 17.55L0.166667 16.85C0 16.6833 -0.0416667 16.5 0.0416667 16.3C0.125 16.1 0.283333 16 0.516667 16H18.1167C18.35 16 18.5083 16.1 18.5917 16.3C18.675 16.5 18.6333 16.6833 18.4667 16.85L17.7667 17.55C17.6333 17.6833 17.4708 17.7917 17.2792 17.875C17.0875 17.9583 16.8917 18 16.6917 18H1.94167ZM0.316667 15C0.416667 14.7 0.55 14.4167 0.716667 14.15C0.883333 13.8833 1.08333 13.6333 1.31667 13.4V6H1.06667C0.85 6 0.670833 5.92917 0.529167 5.7875C0.3875 5.64583 0.316667 5.46667 0.316667 5.25C0.316667 5.03333 0.3875 4.85417 0.529167 4.7125C0.670833 4.57083 0.85 4.5 1.06667 4.5H1.31667V3.75H1.06667C0.85 3.75 0.670833 3.67917 0.529167 3.5375C0.3875 3.39583 0.316667 3.21667 0.316667 3C0.316667 2.78333 0.3875 2.60417 0.529167 2.4625C0.670833 2.32083 0.85 2.25 1.06667 2.25H1.31667V1.5H1.06667C0.85 1.5 0.670833 1.42917 0.529167 1.2875C0.3875 1.14583 0.316667 0.966667 0.316667 0.75C0.316667 0.533333 0.3875 0.354167 0.529167 0.2125C0.670833 0.0708333 0.85 0 1.06667 0H7.31667C7.86667 0 8.3375 0.195833 8.72917 0.5875C9.12083 0.979167 9.31667 1.45 9.31667 2V2.25H17.5667C17.7833 2.25 17.9625 2.32083 18.1042 2.4625C18.2458 2.60417 18.3167 2.78333 18.3167 3C18.3167 3.21667 18.2458 3.39583 18.1042 3.5375C17.9625 3.67917 17.7833 3.75 17.5667 3.75H9.31667V4C9.31667 4.55 9.12083 5.02083 8.72917 5.4125C8.3375 5.80417 7.86667 6 7.31667 6H5.31667V12.1C5.55 12.1333 5.78333 12.1833 6.01667 12.25C6.25 12.3167 6.46667 12.4167 6.66667 12.55C7.1 11.4667 7.79167 10.6042 8.74167 9.9625C9.69167 9.32083 10.7417 9 11.8917 9C13.3917 9 14.6708 9.5125 15.7292 10.5375C16.7875 11.5625 17.3167 12.8167 17.3167 14.3V15H0.316667ZM5.31667 2.25H7.31667V1.5H5.31667V2.25ZM5.31667 4.5H7.31667V3.75H5.31667V4.5ZM2.81667 2.25H3.81667V1.5H2.81667V2.25ZM2.81667 4.5H3.81667V3.75H2.81667V4.5ZM2.81667 12.35C2.98333 12.2667 3.14583 12.2042 3.30417 12.1625C3.4625 12.1208 3.63333 12.0833 3.81667 12.05V6H2.81667V12.35Z" fill="#95B974"/>
</svg>
