<svg width="22" height="22" viewBox="0 0 22 22" fill="none" xmlns="http://www.w3.org/2000/svg">
<path d="M11 22C9.48333 22 8.05833 21.7125 6.725 21.1375C5.39167 20.5625 4.225 19.775 3.225 18.775C2.225 17.775 1.4375 16.6083 0.8625 15.275C0.2875 13.9417 0 12.5167 0 11C0 9.48333 0.2875 8.05833 0.8625 6.725C1.4375 5.39167 2.225 4.225 3.225 3.225C4.225 2.225 5.39167 1.4375 6.725 0.8625C8.05833 0.2875 9.48333 0 11 0C12.5167 0 13.9417 0.2875 15.275 0.8625C16.6083 1.4375 17.775 2.225 18.775 3.225C19.775 4.225 20.5625 5.39167 21.1375 6.725C21.7125 8.05833 22 9.48333 22 11C22 12.5167 21.7125 13.9417 21.1375 15.275C20.5625 16.6083 19.775 17.775 18.775 18.775C17.775 19.775 16.6083 20.5625 15.275 21.1375C13.9417 21.7125 12.5167 22 11 22ZM11 18C12.95 18 14.6042 17.3208 15.9625 15.9625C17.3208 14.6042 18 12.95 18 11C18 9.05 17.3208 7.39583 15.9625 6.0375C14.6042 4.67917 12.95 4 11 4C10.5167 4 10.0667 4.10417 9.65 4.3125C9.23333 4.52083 8.88333 4.81667 8.6 5.2C8.13333 5.2 7.675 5.25833 7.225 5.375C6.775 5.49167 6.38333 5.71667 6.05 6.05C5.71667 6.38333 5.475 6.775 5.325 7.225C5.175 7.675 5.13333 8.13333 5.2 8.6C4.81667 8.88333 4.52083 9.23333 4.3125 9.65C4.10417 10.0667 4 10.5167 4 11C4 11.4833 4.10417 11.9333 4.3125 12.35C4.52083 12.7667 4.81667 13.1167 5.2 13.4C5.13333 13.8667 5.175 14.325 5.325 14.775C5.475 15.225 5.71667 15.6167 6.05 15.95C6.38333 16.2833 6.775 16.5292 7.225 16.6875C7.675 16.8458 8.13333 16.8833 8.6 16.8C8.88333 17.1833 9.23333 17.4792 9.65 17.6875C10.0667 17.8958 10.5167 18 11 18ZM11 16C10.6333 16 10.35 15.8458 10.15 15.5375C9.95 15.2292 9.73333 14.9333 9.5 14.65C9.13333 14.7 8.76667 14.7625 8.4 14.8375C8.03333 14.9125 7.71667 14.8167 7.45 14.55C7.18333 14.2833 7.0875 13.9667 7.1625 13.6C7.2375 13.2333 7.3 12.8667 7.35 12.5C7.06667 12.2833 6.77083 12.0708 6.4625 11.8625C6.15417 11.6542 6 11.3667 6 11C6 10.6333 6.15417 10.35 6.4625 10.15C6.77083 9.95 7.06667 9.73333 7.35 9.5C7.3 9.13333 7.2375 8.76667 7.1625 8.4C7.0875 8.03333 7.18333 7.71667 7.45 7.45C7.71667 7.18333 8.03333 7.0875 8.4 7.1625C8.76667 7.2375 9.13333 7.3 9.5 7.35C9.71667 7.06667 9.92917 6.77083 10.1375 6.4625C10.3458 6.15417 10.6333 6 11 6V16ZM13.65 14.65L12.95 13.95C12.85 13.85 12.8 13.7292 12.8 13.5875C12.8 13.4458 12.85 13.325 12.95 13.225L13.65 12.525C13.75 12.425 13.8667 12.375 14 12.375C14.1333 12.375 14.25 12.425 14.35 12.525L15.05 13.225C15.15 13.325 15.2 13.4458 15.2 13.5875C15.2 13.7292 15.15 13.85 15.05 13.95L14.35 14.65C14.25 14.75 14.1333 14.8 14 14.8C13.8667 14.8 13.75 14.75 13.65 14.65ZM12.875 8.525C12.7583 8.40833 12.7083 8.275 12.725 8.125C12.7417 7.975 12.8167 7.85833 12.95 7.775C13.2333 7.65833 13.5167 7.625 13.8 7.675C14.0833 7.725 14.3333 7.86667 14.55 8.1C14.7833 8.31667 14.9292 8.57083 14.9875 8.8625C15.0458 9.15417 15.0167 9.44167 14.9 9.725C14.8333 9.875 14.7208 9.95833 14.5625 9.975C14.4042 9.99167 14.2583 9.93333 14.125 9.8L12.875 8.525Z" fill="#95B974"/>
</svg>
