<svg width="18" height="22" viewBox="0 0 18 22" fill="none" xmlns="http://www.w3.org/2000/svg">
<path d="M4 22C3.78333 22 3.60417 21.9292 3.4625 21.7875C3.32083 21.6458 3.25 21.4667 3.25 21.25V18H2.5C1.8 18 1.20833 17.7583 0.725 17.275C0.241667 16.7917 0 16.2 0 15.5C0 14.8 0.241667 14.2083 0.725 13.725C1.20833 13.2417 1.8 13 2.5 13H3.25V12H1C0.716667 12 0.479167 11.9042 0.2875 11.7125C0.0958333 11.5208 0 11.2833 0 11V8C0 7.71667 0.0958333 7.47917 0.2875 7.2875C0.479167 7.09583 0.716667 7 1 7H3.25V6H2.5C1.8 6 1.20833 5.75833 0.725 5.275C0.241667 4.79167 0 4.2 0 3.5C0 2.8 0.241667 2.20833 0.725 1.725C1.20833 1.24167 1.8 1 2.5 1H3.25V0.75C3.25 0.533333 3.32083 0.354167 3.4625 0.2125C3.60417 0.0708333 3.78333 0 4 0C4.21667 0 4.39583 0.0708333 4.5375 0.2125C4.67917 0.354167 4.75 0.533333 4.75 0.75V1H5.5C6.2 1 6.79167 1.24167 7.275 1.725C7.75833 2.20833 8 2.8 8 3.5C8 4.2 7.75833 4.79167 7.275 5.275C6.79167 5.75833 6.2 6 5.5 6H4.75V7H7C7.28333 7 7.52083 7.09583 7.7125 7.2875C7.90417 7.47917 8 7.71667 8 8V11C8 11.2833 7.90417 11.5208 7.7125 11.7125C7.52083 11.9042 7.28333 12 7 12H4.75V13H5.5C6.2 13 6.79167 13.2417 7.275 13.725C7.75833 14.2083 8 14.8 8 15.5C8 16.2 7.75833 16.7917 7.275 17.275C6.79167 17.7583 6.2 18 5.5 18H4.75V21.25C4.75 21.4667 4.67917 21.6458 4.5375 21.7875C4.39583 21.9292 4.21667 22 4 22ZM14 22C13.7833 22 13.6042 21.9292 13.4625 21.7875C13.3208 21.6458 13.25 21.4667 13.25 21.25V18H12.5C11.8 18 11.2083 17.7583 10.725 17.275C10.2417 16.7917 10 16.2 10 15.5C10 14.8 10.2417 14.2083 10.725 13.725C11.2083 13.2417 11.8 13 12.5 13H13.25V12H11C10.7167 12 10.4792 11.9042 10.2875 11.7125C10.0958 11.5208 10 11.2833 10 11V8C10 7.71667 10.0958 7.47917 10.2875 7.2875C10.4792 7.09583 10.7167 7 11 7H13.25V6H12.5C11.8 6 11.2083 5.75833 10.725 5.275C10.2417 4.79167 10 4.2 10 3.5C10 2.8 10.2417 2.20833 10.725 1.725C11.2083 1.24167 11.8 1 12.5 1H13.25V0.75C13.25 0.533333 13.3208 0.354167 13.4625 0.2125C13.6042 0.0708333 13.7833 0 14 0C14.2167 0 14.3958 0.0708333 14.5375 0.2125C14.6792 0.354167 14.75 0.533333 14.75 0.75V1H15.5C16.2 1 16.7917 1.24167 17.275 1.725C17.7583 2.20833 18 2.8 18 3.5C18 4.2 17.7583 4.79167 17.275 5.275C16.7917 5.75833 16.2 6 15.5 6H14.75V7H17C17.2833 7 17.5208 7.09583 17.7125 7.2875C17.9042 7.47917 18 7.71667 18 8V11C18 11.2833 17.9042 11.5208 17.7125 11.7125C17.5208 11.9042 17.2833 12 17 12H14.75V13H15.5C16.2 13 16.7917 13.2417 17.275 13.725C17.7583 14.2083 18 14.8 18 15.5C18 16.2 17.7583 16.7917 17.275 17.275C16.7917 17.7583 16.2 18 15.5 18H14.75V21.25C14.75 21.4667 14.6792 21.6458 14.5375 21.7875C14.3958 21.9292 14.2167 22 14 22Z" fill="#95B974"/>
</svg>
