<svg width="20" height="20" viewBox="0 0 20 20" fill="none" xmlns="http://www.w3.org/2000/svg">
<path d="M3.56176 19.9095C2.86176 19.9095 2.2451 19.7012 1.71176 19.2845C1.17843 18.8679 0.828431 18.3262 0.661765 17.6595L0.0367647 15.1595C-0.0465686 14.8429 0.0117647 14.5554 0.211765 14.297C0.411765 14.0387 0.678431 13.9095 1.01176 13.9095H1.46176C1.4951 13.7595 1.53676 13.6095 1.58676 13.4595C1.63676 13.3095 1.68676 13.1679 1.73676 13.0345V2.80952C1.73676 2.55952 1.82426 2.33869 1.99926 2.14702C2.17426 1.95536 2.38676 1.84286 2.63676 1.80952L18.9118 0.00952381C19.1451 -0.0238095 19.3409 0.0303572 19.4993 0.172024C19.6576 0.31369 19.7368 0.50119 19.7368 0.734524C19.7368 0.917857 19.6743 1.08036 19.5493 1.22202C19.4243 1.36369 19.2701 1.45119 19.0868 1.48452L8.23676 2.70952V4.40952H18.9868C19.2034 4.40952 19.3826 4.48036 19.5243 4.62202C19.6659 4.76369 19.7368 4.94286 19.7368 5.15952C19.7368 5.37619 19.6659 5.55536 19.5243 5.69702C19.3826 5.83869 19.2034 5.90952 18.9868 5.90952H8.23676V7.53452C8.4701 7.50119 8.71593 7.47202 8.97427 7.44702C9.2326 7.42202 9.48676 7.40952 9.73676 7.40952C11.7534 7.40952 13.5201 8.02619 15.0368 9.25952C16.5534 10.4929 17.5368 12.0429 17.9868 13.9095H18.4618C18.7951 13.9095 19.0576 14.0387 19.2493 14.297C19.4409 14.5554 19.4951 14.8429 19.4118 15.1595L18.7868 17.6595C18.6201 18.3262 18.2701 18.8679 17.7368 19.2845C17.2034 19.7012 16.5868 19.9095 15.8868 19.9095H3.56176ZM3.56176 13.9095H5.16176C5.5451 13.0095 6.1451 12.2845 6.96176 11.7345C7.77843 11.1845 8.70343 10.9095 9.73676 10.9095C10.7701 10.9095 11.6909 11.1845 12.4993 11.7345C13.3076 12.2845 13.9034 13.0095 14.2868 13.9095H15.8868C15.4534 12.6095 14.6826 11.5345 13.5743 10.6845C12.4659 9.83452 11.1868 9.40952 9.73676 9.40952C8.2701 9.40952 6.9826 9.83452 5.87426 10.6845C4.76593 11.5345 3.9951 12.6095 3.56176 13.9095ZM7.51176 13.9095H11.9368C11.6534 13.5929 11.3243 13.347 10.9493 13.172C10.5743 12.997 10.1701 12.9095 9.73676 12.9095C9.30343 12.9095 8.8951 12.997 8.51176 13.172C8.12843 13.347 7.7951 13.5929 7.51176 13.9095ZM3.23676 10.4345C3.38676 10.2512 3.5451 10.0762 3.71176 9.90952C3.87843 9.74286 4.05343 9.58452 4.23676 9.43452V5.90952H3.23676V10.4345ZM5.73676 8.40952C5.90343 8.32619 6.06593 8.24702 6.22426 8.17202C6.3826 8.09702 6.55343 8.02619 6.73676 7.95952V5.90952H5.73676V8.40952ZM3.23676 4.40952H4.23676V3.15952L3.23676 3.25952V4.40952ZM5.73676 4.40952H6.73676V2.85952L5.73676 2.98452V4.40952Z" fill="#435334"/>
</svg>
