<svg width="114" height="68" viewBox="0 0 114 68" fill="none" xmlns="http://www.w3.org/2000/svg">
<path d="M72.6234 54.7443C74.1231 59.7825 77.356 61.1656 81.9719 61.2822C88.7986 61.4489 95.6032 62.2321 102.413 62.7876C103.277 62.9132 104.131 63.0988 104.968 63.343L105.018 64.3207C102.674 64.7317 100.341 65.3372 97.9806 65.5205C74.5231 67.2869 51.0489 67.8534 27.5525 66.2481C22.3033 65.8871 17.0541 65.4538 11.8105 64.9872C10.6929 64.8073 9.59015 64.5455 8.51097 64.204V63.2375C11.6049 62.7487 14.6878 62.0432 17.804 61.8155C23.242 61.4267 28.7023 61.3045 34.1515 61.1267C37.1066 61.0323 40.1672 58.666 40.4672 55.772C40.5283 55.2165 39.2563 54.1444 38.4342 53.9223C31.7995 52.2217 25.5322 49.3206 19.9425 45.3624C5.52254 34.8918 -0.732057 20.494 0.06782 2.88564C0.112258 1.97466 1.13988 0.524887 1.94531 0.308254C3.88946 -0.130568 6.11134 -0.419412 7.42225 1.75803C8.22768 3.09672 8.75538 4.59649 9.44416 6.00738C15.3544 18.1666 26.6249 22.7493 39.1674 22.116C47.4994 21.6883 54.6428 18.3388 61.1418 13.2285C74.0565 3.10227 88.9708 0.624873 104.863 2.11909C106.428 2.20679 107.984 2.4129 109.518 2.73566C112.795 3.56887 113.9 5.00753 113.623 8.29036C112.262 24.5323 105.602 37.8358 91.4038 46.5067C86.8045 49.3174 81.5775 51.106 76.6116 53.3112C75.3618 53.8945 74.0287 54.2555 72.6234 54.7443Z" fill="#FAF1E4"/>
</svg>
