<svg width="128" height="79" viewBox="0 0 128 79" fill="none" xmlns="http://www.w3.org/2000/svg">
<path d="M72.6234 65.7925C74.1231 70.8306 77.356 72.2137 81.9719 72.3304C88.7986 72.497 95.6032 73.2802 102.413 73.8357C103.277 73.9613 104.131 74.147 104.968 74.3912L105.018 75.3688C102.674 75.7799 100.341 76.3853 97.9806 76.5686C74.5231 78.335 51.0489 78.9016 27.5525 77.2963C22.3033 76.9352 17.0541 76.502 11.8105 76.0354C10.6929 75.8554 9.59015 75.5936 8.51097 75.2522V74.2856C11.6049 73.7968 14.6878 73.0914 17.804 72.8636C23.242 72.4748 28.7023 72.3526 34.1515 72.1749C37.1066 72.0804 40.1672 69.7141 40.4672 66.8201C40.5283 66.2647 39.2563 65.1926 38.4342 64.9704C31.7995 63.2698 25.5322 60.3687 19.9425 56.4106C5.52254 45.94 -0.732057 31.5422 0.06782 13.9338C0.112258 13.0228 1.13988 11.573 1.94531 11.3564C3.88946 10.9176 6.11134 10.6287 7.42225 12.8062C8.22768 14.1449 8.75538 15.6446 9.44416 17.0555C15.3544 29.2148 26.6249 33.7974 39.1674 33.1642C47.4994 32.7365 54.6428 29.387 61.1418 24.2767C74.0565 14.1504 88.9708 11.673 104.863 13.1672C106.428 13.2549 107.984 13.4611 109.518 13.7838C112.795 14.617 113.9 16.0557 113.623 19.3385C112.262 35.5805 105.602 48.884 91.4038 57.5549C86.8045 60.3656 81.5775 62.1542 76.6116 64.3594C75.3618 64.9426 74.0287 65.3037 72.6234 65.7925Z" fill="#FAF1E4"/>
<path d="M117.367 11.2953C112.195 10.6288 106.813 9.83444 101.397 9.26231C85.2215 7.55146 69.9961 9.93998 56.9203 20.4273C49.0882 26.7152 40.4339 29.5814 30.5521 27.1929C23.0644 25.3821 17.2208 21.2771 14.8545 13.4561C13.7991 9.97331 14.4324 9.35118 18.0318 9.60114C26.7916 10.2011 35.5514 10.8898 44.3222 11.2176C52.7932 11.5342 60.642 8.51798 68.5852 6.05169C81.8165 1.94121 95.3366 -0.363993 109.257 0.047055C114.689 0.208141 119.911 1.158 124.81 3.63539C126.476 4.47415 128.609 5.51288 127.837 7.62367C127.371 8.8957 125.443 9.98442 123.949 10.4566C121.949 11.0842 119.75 11.0287 117.367 11.2953Z" fill="#FAF1E4"/>
</svg>
