<svg width="22" height="22" viewBox="0 0 22 22" fill="none" xmlns="http://www.w3.org/2000/svg">
<path d="M11 22C9.48333 22 8.05417 21.7125 6.7125 21.1375C5.37083 20.5625 4.20417 19.7792 3.2125 18.7875C2.22083 17.7958 1.4375 16.6292 0.8625 15.2875C0.2875 13.9458 0 12.5167 0 11C0 9.48333 0.2875 8.05833 0.8625 6.725C1.4375 5.39167 2.22083 4.225 3.2125 3.225C4.20417 2.225 5.37083 1.4375 6.7125 0.8625C8.05417 0.2875 9.48333 0 11 0C11.7 0 12.375 0.0625 13.025 0.1875C13.675 0.3125 14.3083 0.491667 14.925 0.725C15.675 0.458333 16.4667 0.279167 17.3 0.1875C18.1333 0.0958333 18.9583 0.0416667 19.775 0.025C20.1083 0.025 20.3958 0.145833 20.6375 0.3875C20.8792 0.629167 21 0.916667 21 1.25C20.9833 1.95 20.9458 2.6625 20.8875 3.3875C20.8292 4.1125 20.7083 4.825 20.525 5.525C20.9917 6.325 21.3542 7.1875 21.6125 8.1125C21.8708 9.0375 22 10 22 11C22 12.5167 21.7125 13.9458 21.1375 15.2875C20.5625 16.6292 19.775 17.7958 18.775 18.7875C17.775 19.7792 16.6083 20.5625 15.275 21.1375C13.9417 21.7125 12.5167 22 11 22ZM5.025 11C5.025 11.3667 5.07917 11.7208 5.1875 12.0625C5.29583 12.4042 5.45833 12.7333 5.675 13.05L8.175 16.55C8.275 16.6833 8.4 16.7875 8.55 16.8625C8.7 16.9375 8.85 16.975 9 16.975C9.15 16.975 9.29583 16.9375 9.4375 16.8625C9.57917 16.7875 9.7 16.6833 9.8 16.55L12.3 13.05C12.5167 12.7333 12.6792 12.4042 12.7875 12.0625C12.8958 11.7208 12.95 11.3667 12.95 11C12.95 10.6333 12.8958 10.2792 12.7875 9.9375C12.6792 9.59583 12.5167 9.275 12.3 8.975L9.8 5.45C9.7 5.31667 9.57917 5.2125 9.4375 5.1375C9.29583 5.0625 9.15 5.025 9 5.025C8.85 5.025 8.7 5.0625 8.55 5.1375C8.4 5.2125 8.275 5.31667 8.175 5.45L5.675 8.975C5.45833 9.275 5.29583 9.6 5.1875 9.95C5.07917 10.3 5.025 10.65 5.025 11ZM13.5 17C14.75 17 15.8125 16.5667 16.6875 15.7C17.5625 14.8333 18 13.775 18 12.525C18 12.0417 17.925 11.5792 17.775 11.1375C17.625 10.6958 17.4167 10.2833 17.15 9.9C16.8167 10.0833 16.4625 10.2333 16.0875 10.35C15.7125 10.4667 15.3333 10.5667 14.95 10.65C14.9667 10.7167 14.975 10.7792 14.975 10.8375V11C14.975 11.5667 14.8875 12.1208 14.7125 12.6625C14.5375 13.2042 14.2833 13.7167 13.95 14.2L12.1 16.8C12.3167 16.8667 12.5417 16.9167 12.775 16.95C13.0083 16.9833 13.25 17 13.5 17ZM14.475 8.725C15.2417 8.54167 15.8875 8.29583 16.4125 7.9875C16.9375 7.67917 17.375 7.3 17.725 6.85C18.2583 6.15 18.6042 5.37083 18.7625 4.5125C18.9208 3.65417 19.0417 2.8 19.125 1.95C18.4083 1.96667 17.6875 2.04583 16.9625 2.1875C16.2375 2.32917 15.5583 2.575 14.925 2.925C14.2917 3.25833 13.7958 3.65833 13.4375 4.125C13.0792 4.59167 12.7833 5.175 12.55 5.875C12.7833 6.19167 13.1083 6.62917 13.525 7.1875C13.9417 7.74583 14.2583 8.25833 14.475 8.725ZM7.975 13.4C7.825 13.25 7.75 13.0708 7.75 12.8625C7.75 12.6542 7.825 12.475 7.975 12.325L8.65 11.65L7.775 10.95C7.59167 10.8167 7.5 10.6375 7.5 10.4125C7.5 10.1875 7.575 10 7.725 9.85L8.975 8.6C9.125 8.45 9.3 8.375 9.5 8.375C9.7 8.375 9.875 8.45 10.025 8.6C10.175 8.75 10.25 8.925 10.25 9.125C10.25 9.325 10.175 9.5 10.025 9.65L9.35 10.325L10.225 11.05C10.4083 11.1833 10.5 11.3625 10.5 11.5875C10.5 11.8125 10.425 12 10.275 12.15L9.025 13.4C8.875 13.55 8.7 13.625 8.5 13.625C8.3 13.625 8.125 13.55 7.975 13.4Z" fill="#95B974"/>
</svg>
